<svg width="38" height="61" viewBox="0 0 38 61" fill="none" xmlns="http://www.w3.org/2000/svg">
<ellipse cx="19" cy="56" rx="10" ry="5" fill="#5A5656" fill-opacity="0.69"/>
<mask id="path-2-inside-1_1028_1358" fill="white">
<path fill-rule="evenodd" clip-rule="evenodd" d="M37.5447 19.0182C37.8111 18.9071 38 18.649 38 18.3428C38 8.21236 29.4934 0 19 0C8.50659 0 0 8.21236 0 18.3428C0 18.6324 0.168923 18.8789 0.412603 18.9988C0.464388 19.1965 0.532201 19.3938 0.616915 19.5894L15.3106 53.523C16.7023 56.7371 21.2601 56.7371 22.6519 53.523L37.3455 19.5894C37.4275 19.4002 37.4936 19.2094 37.5447 19.0182Z"/>
</mask>
<path fill-rule="evenodd" clip-rule="evenodd" d="M37.5447 19.0182C37.8111 18.9071 38 18.649 38 18.3428C38 8.21236 29.4934 0 19 0C8.50659 0 0 8.21236 0 18.3428C0 18.6324 0.168923 18.8789 0.412603 18.9988C0.464388 19.1965 0.532201 19.3938 0.616915 19.5894L15.3106 53.523C16.7023 56.7371 21.2601 56.7371 22.6519 53.523L37.3455 19.5894C37.4275 19.4002 37.4936 19.2094 37.5447 19.0182Z" fill="#F85F5F" fill-opacity="0.88"/>
<path d="M37.5447 19.0182L36.7749 17.1723L35.8667 17.551L35.6126 18.5017L37.5447 19.0182ZM0.412603 18.9988L2.34732 18.492L2.11569 17.6077L1.29548 17.2042L0.412603 18.9988ZM0.616915 19.5894L2.45224 18.7947L2.45224 18.7947L0.616915 19.5894ZM15.3106 53.523L13.4752 54.3177L13.4752 54.3177L15.3106 53.523ZM22.6519 53.523L24.4872 54.3177L24.4872 54.3177L22.6519 53.523ZM37.3455 19.5894L35.5102 18.7947L35.5102 18.7947L37.3455 19.5894ZM38.3145 20.8641C39.2774 20.4625 40 19.5076 40 18.3428H36C36 17.7905 36.3449 17.3516 36.7749 17.1723L38.3145 20.8641ZM40 18.3428C40 7.04201 30.531 -2 19 -2V2C28.4558 2 36 9.3827 36 18.3428H40ZM19 -2C7.46896 -2 -2 7.04201 -2 18.3428H2C2 9.3827 9.54422 2 19 2V-2ZM-2 18.3428C-2 19.443 -1.35333 20.3589 -0.470273 20.7934L1.29548 17.2042C1.69118 17.3989 2 17.8218 2 18.3428H-2ZM-1.52212 19.5056C-1.44449 19.8019 -1.34341 20.0955 -1.21841 20.3842L2.45224 18.7947C2.40781 18.6921 2.37327 18.591 2.34732 18.492L-1.52212 19.5056ZM-1.21841 20.3842L13.4752 54.3177L17.1459 52.7283L2.45224 18.7947L-1.21841 20.3842ZM13.4752 54.3177C15.5629 59.1388 22.3996 59.1388 24.4872 54.3177L20.8166 52.7283C20.1207 54.3353 17.8418 54.3353 17.1459 52.7283L13.4752 54.3177ZM24.4872 54.3177L39.1809 20.3842L35.5102 18.7947L20.8166 52.7283L24.4872 54.3177ZM39.1809 20.3842C39.3018 20.1049 39.4003 19.8211 39.4769 19.5346L35.6126 18.5017C35.5869 18.5977 35.5532 18.6955 35.5102 18.7947L39.1809 20.3842Z" fill="#241D1D" mask="url(#path-2-inside-1_1028_1358)"/>
<circle cx="19" cy="20" r="11" fill="white"/>
<path d="M12 19.6416V19.8069" stroke="black" stroke-width="3" stroke-linecap="round"/>
<path d="M26.0352 19L26.0461 19.1847" stroke="black" stroke-width="3" stroke-linecap="round"/>
<path d="M17.0687 21.35C18.498 22.4121 19.8446 22.2076 21.0656 20.4741" stroke="black" stroke-width="2" stroke-linecap="round"/>
</svg>
